# xmcd
#
# Track frame offsets:
# 150
# 17667
# 35647
# 50385
# 67965
# 81965
# 98620
# 115672
# 128445
# 147207
# 162870
# 177957
# 198342
#
# Disc length: 2860 seconds
#
#
# Revision: 0
# Processed by: cddbd v1.5.1PL0 Copyright (c) Steve Scherf et al.
# Submitted via: FreeRIP 2.90 
#
DISCID=a00b2a0d
DTITLE=The Giants - Working Underground
DYEAR=1900
DGENRE=Blues
TTITLE0=Six Second Man
TTITLE1=Time To Unwind
TTITLE2=The Ballad Of Big Sue
TTITLE3=Little Miss Amphetamine
TTITLE4=Short Dress
TTITLE5=Workin' Underground
TTITLE6=Raven-Haired Mistress Of The Dark
TTITLE7=Going Down To Broadford
TTITLE8=Glad I'm Livin' Here
TTITLE9=Broke Again Blues
TTITLE10=I Aint Superstitious
TTITLE11=Copperhead Road
TTITLE12=Solitary Drinking Blues
EXTD=
EXTT0=
EXTT1=
EXTT2=
EXTT3=
EXTT4=
EXTT5=
EXTT6=
EXTT7=
EXTT8=
EXTT9=
EXTT10=
EXTT11=
EXTT12=
PLAYORDER=
